<svg version="1.1" xmlns="http://www.w3.org/2000/svg" viewBox="0 0 667.5131191016671 107.5908370778457" width="1335.0262382033343" height="215.1816741556914" filter="invert(93%) hue-rotate(180deg)">
  <!-- svg-source:excalidraw -->
  
  <defs>
    <style class="style-fonts">
      @font-face {
        font-family: "Virgil";
        src: url("https://excalidraw.com/Virgil.woff2");
      }
      @font-face {
        font-family: "Cascadia";
        src: url("https://excalidraw.com/Cascadia.woff2");
      }
    </style>
  </defs>
  <rect x="0" y="0" width="667.5131191016671" height="107.5908370778457" fill="#e3fafc"></rect><g stroke-linecap="round" transform="translate(243.00091291434973 10.076783710481422) rotate(0 91.55965470783235 43.703207882495434)"><path d="M21.85 0 M21.85 0 C64.98 0, 108.11 0, 161.27 0 M21.85 0 C66.95 0, 112.04 0, 161.27 0 M161.27 0 C175.84 0, 183.12 7.28, 183.12 21.85 M161.27 0 C175.84 0, 183.12 7.28, 183.12 21.85 M183.12 21.85 C183.12 32.51, 183.12 43.16, 183.12 65.55 M183.12 21.85 C183.12 31.04, 183.12 40.24, 183.12 65.55 M183.12 65.55 C183.12 80.12, 175.84 87.41, 161.27 87.41 M183.12 65.55 C183.12 80.12, 175.84 87.41, 161.27 87.41 M161.27 87.41 C114.78 87.41, 68.29 87.41, 21.85 87.41 M161.27 87.41 C111.73 87.41, 62.19 87.41, 21.85 87.41 M21.85 87.41 C7.28 87.41, 0 80.12, 0 65.55 M21.85 87.41 C7.28 87.41, 0 80.12, 0 65.55 M0 65.55 C0 49.68, 0 33.8, 0 21.85 M0 65.55 C0 51.2, 0 36.85, 0 21.85 M0 21.85 C0 7.28, 7.28 0, 21.85 0 M0 21.85 C0 7.28, 7.28 0, 21.85 0" stroke="#862e9c" stroke-width="1" fill="none"></path></g><g transform="translate(257.5605676221821 41.779991592976856) rotate(0 77 12)"><text x="77" y="20" font-family="Cascadia, Segoe UI Emoji" font-size="20px" fill="#862e9c" text-anchor="middle" style="white-space: pre;" direction="ltr">Traefik proxy</text></g><g stroke-linecap="round" transform="translate(10 10.184421312854838) rotate(0 91.55965470783238 43.703207882495434)"><path d="M21.85 0 M21.85 0 C52.13 0, 82.41 0, 161.27 0 M21.85 0 C74.19 0, 126.53 0, 161.27 0 M161.27 0 C175.84 0, 183.12 7.28, 183.12 21.85 M161.27 0 C175.84 0, 183.12 7.28, 183.12 21.85 M183.12 21.85 C183.12 35.67, 183.12 49.49, 183.12 65.55 M183.12 21.85 C183.12 38.4, 183.12 54.95, 183.12 65.55 M183.12 65.55 C183.12 80.12, 175.84 87.41, 161.27 87.41 M183.12 65.55 C183.12 80.12, 175.84 87.41, 161.27 87.41 M161.27 87.41 C120.04 87.41, 78.82 87.41, 21.85 87.41 M161.27 87.41 C122.35 87.41, 83.43 87.41, 21.85 87.41 M21.85 87.41 C7.28 87.41, 0 80.12, 0 65.55 M21.85 87.41 C7.28 87.41, 0 80.12, 0 65.55 M0 65.55 C0 55.75, 0 45.95, 0 21.85 M0 65.55 C0 50.98, 0 36.4, 0 21.85 M0 21.85 C0 7.28, 7.28 0, 21.85 0 M0 21.85 C0 7.28, 7.28 0, 21.85 0" stroke="#000000" stroke-width="1" fill="none"></path></g><g transform="translate(65.55965470783241 41.88762919535027) rotate(0 36 12)"><text x="36" y="20" font-family="Cascadia, Segoe UI Emoji" font-size="20px" fill="#000000" text-anchor="middle" style="white-space: pre;" direction="ltr">Client</text></g><g stroke-linecap="round" transform="translate(474.3938096860024 10) rotate(0 91.55965470783235 43.70320788249543)"><path d="M21.85 0 M21.85 0 C59.93 0, 98.02 0, 161.27 0 M21.85 0 C59.66 0, 97.46 0, 161.27 0 M161.27 0 C175.84 0, 183.12 7.28, 183.12 21.85 M161.27 0 C175.84 0, 183.12 7.28, 183.12 21.85 M183.12 21.85 C183.12 31.18, 183.12 40.5, 183.12 65.55 M183.12 21.85 C183.12 36.35, 183.12 50.85, 183.12 65.55 M183.12 65.55 C183.12 80.12, 175.84 87.41, 161.27 87.41 M183.12 65.55 C183.12 80.12, 175.84 87.41, 161.27 87.41 M161.27 87.41 C125.49 87.41, 89.71 87.41, 21.85 87.41 M161.27 87.41 C132.36 87.41, 103.46 87.41, 21.85 87.41 M21.85 87.41 C7.28 87.41, 0 80.12, 0 65.55 M21.85 87.41 C7.28 87.41, 0 80.12, 0 65.55 M0 65.55 C0 52.88, 0 40.2, 0 21.85 M0 65.55 C0 48.89, 0 32.22, 0 21.85 M0 21.85 C0 7.28, 7.28 0, 21.85 0 M0 21.85 C0 7.28, 7.28 0, 21.85 0" stroke="#000000" stroke-width="1" fill="none"></path></g><g transform="translate(529.953464393835 41.70320788249542) rotate(0 36 12)"><text x="36" y="20" font-family="Cascadia, Segoe UI Emoji" font-size="20px" fill="#000000" text-anchor="middle" style="white-space: pre;" direction="ltr">Server</text></g><g stroke-linecap="round"><g transform="translate(195.42296503330994 55.4954446212691) rotate(0 23.14422274839592 -0.02119118321060398)"><path d="M0 0 C7.71 -0.01, 38.57 -0.04, 46.29 -0.04 M0 0 C7.71 -0.01, 38.57 -0.04, 46.29 -0.04" stroke="#000000" stroke-width="1" fill="none"></path></g><g transform="translate(195.42296503330994 55.4954446212691) rotate(0 23.14422274839592 -0.02119118321060398)"><path d="M46.29 -0.04 L32.7 6.31 L32.69 -6.37 L46.29 -0.04" stroke="none" stroke-width="0" fill="#000000" fill-rule="evenodd"></path><path d="M46.29 -0.04 C42.49 1.73, 38.69 3.51, 32.7 6.31 M46.29 -0.04 C43.47 1.27, 40.66 2.59, 32.7 6.31 M32.7 6.31 C32.7 3.61, 32.69 0.92, 32.69 -6.37 M32.7 6.31 C32.7 2.68, 32.69 -0.96, 32.69 -6.37 M32.69 -6.37 C36.83 -4.44, 40.96 -2.52, 46.29 -0.04 M32.69 -6.37 C36.31 -4.68, 39.94 -3, 46.29 -0.04 M46.29 -0.04 C46.29 -0.04, 46.29 -0.04, 46.29 -0.04 M46.29 -0.04 C46.29 -0.04, 46.29 -0.04, 46.29 -0.04" stroke="#000000" stroke-width="1" fill="none"></path></g></g><mask></mask><g stroke-linecap="round"><g transform="translate(427.2057810213766 51.90437116168489) rotate(0 23.094014332312895 0.4670335857075969)"><path d="M0 0 C7.7 0.16, 38.49 0.78, 46.19 0.93 M0 0 C7.7 0.16, 38.49 0.78, 46.19 0.93" stroke="#000000" stroke-width="1" fill="none"></path></g><g transform="translate(427.2057810213766 51.90437116168489) rotate(0 23.094014332312895 0.4670335857075969)"><path d="M46.19 0.93 L32.47 7 L32.72 -5.68 L46.19 0.93" stroke="none" stroke-width="0" fill="#000000" fill-rule="evenodd"></path><path d="M46.19 0.93 C41.3 3.09, 36.41 5.25, 32.47 7 M46.19 0.93 C42.69 2.48, 39.2 4.02, 32.47 7 M32.47 7 C32.54 3.34, 32.62 -0.32, 32.72 -5.68 M32.47 7 C32.55 3.15, 32.62 -0.69, 32.72 -5.68 M32.72 -5.68 C35.88 -4.13, 39.04 -2.58, 46.19 0.93 M32.72 -5.68 C37.9 -3.14, 43.07 -0.6, 46.19 0.93 M46.19 0.93 C46.19 0.93, 46.19 0.93, 46.19 0.93 M46.19 0.93 C46.19 0.93, 46.19 0.93, 46.19 0.93" stroke="#000000" stroke-width="1" fill="none"></path></g></g><mask></mask></svg>